<svg width="85" height="5" viewBox="0 0 85 5" fill="none" xmlns="http://www.w3.org/2000/svg">
  <path d="M79.7303 2.8984C81 1.89844 82.2697 1 84.7059 1V0C81.8479 0 80.4706 1.1016 79.0933 2.1016C77.8235 3.10156 76.5538 4 74.1176 4C71.6815 4 70.4118 3.1016 69.142 2.1016C67.7647 1.1016 66.3874 0 63.5294 0C60.6714 0 59.2941 1.1016 57.9168 2.1016C56.6471 3.10156 55.3773 4 52.9412 4C50.505 4 49.2353 3.1016 47.9656 2.1016C46.5882 1.1016 45.2109 0 42.3529 0C39.495 0 38.1176 1.1016 36.7403 2.1016C35.4706 3.10156 34.2008 4 31.7647 4C29.3286 4 28.0588 3.1016 26.7891 2.1016C25.4118 1.1016 24.0344 0 21.1765 0C18.3185 0 16.9412 1.1016 15.5639 2.1016C14.2941 3.10156 13.0244 4 10.5882 4C8.15209 4 6.88235 3.1016 5.61261 2.1016C4.23529 1.1016 2.85798 0 0 0V1C2.43614 1 3.70588 1.8984 4.97562 2.8984C6.35294 3.8984 7.73026 5 10.5882 5C13.4462 5 14.8235 3.8984 16.2008 2.8984C17.4706 1.89844 18.7403 1 21.1765 1C23.6126 1 24.8824 1.8984 26.1521 2.8984C27.5294 3.8984 28.9067 5 31.7647 5C34.6227 5 36 3.8984 37.3773 2.8984C38.6471 1.89844 39.9168 1 42.3529 1C44.7891 1 46.0588 1.8984 47.3286 2.8984C48.7059 3.8984 50.0832 5 52.9412 5C55.7991 5 57.1765 3.8984 58.5538 2.8984C59.8235 1.89844 61.0933 1 63.5294 1C65.9655 1 67.2353 1.8984 68.505 2.8984C69.8824 3.8984 71.2597 5 74.1176 5C76.9756 5 78.3529 3.8984 79.7303 2.8984Z" fill="#E5E5E5"/>
</svg>
